# xmcd CD database file
#
# Track frame offsets:
#	150
#	13800
#	28733
#	38692
#	50883
#	66598
#	84471
#	100651
#	116003
#	131053
#	147661
#	160696
#
# Disc length: 2525 seconds
#
# Revision: 0
# Processed by: cddbd v1.5.1PL2 Copyright (c) Steve Scherf et al.
# Submitted via: NeoAudio 9.9.9
#
DISCID=ac09db0c
DTITLE=get up and  dance workshop 45 - get up and dance workshop 45
DYEAR=1900
DGENRE=Country
TTITLE0=Tequila Crazy - Joe Nichols
TTITLE1=Still in love - Travis Tritt
TTITLE2=Colonel Boogie March - Chet Atkins and Jerry Reed
TTITLE3=Press Play - Stevev Wanner
TTITLE4=Running Water - Kentucky Headhunters
TTITLE5=Drinks For Two - Lonestar
TTITLE6=Keep Dancing - Chica
TTITLE7=Keep Dancing - Collin Raye
TTITLE8=Heartbreaker - Blue Lagoon
TTITLE9=Heartbreaker - Jocelyn Brown
TTITLE10=Abba Mia -  Ateens
TTITLE11=What's Not my Love - Brooks and Dunn
EXTD=
EXTT0=
EXTT1=
EXTT2=
EXTT3=
EXTT4=
EXTT5=
EXTT6=
EXTT7=
EXTT8=
EXTT9=
EXTT10=
EXTT11=
PLAYORDER=
